static_grf.mot
version=1
nRows=30
nColumns 19
inDegrees=yes
endheader
time	1_ground_force_vx	1_ground_force_vy	1_ground_force_vz	1_ground_force_px	1_ground_force_py	1_ground_force_pz	1_ground_torque_x	1_ground_torque_y	1_ground_torque_z	2_ground_force_vx	2_ground_force_vy	2_ground_force_vz	2_ground_force_px	2_ground_force_py	2_ground_force_pz	2_ground_torque_x	2_ground_torque_y	2_ground_torque_z
            0.005000	          -11.794134	          461.310223	          -42.978631	           -0.262033	            0.005989	           -0.351922	           -0.059876	            2.341948	           -0.218191	            8.409118	          453.250388	           46.195113	           -0.316224	            0.005473	           -0.734370	           -0.006004	           -0.323629	           -0.032984
            0.005500	          -11.793745	          461.669967	          -42.793661	           -0.261854	            0.005988	           -0.351707	           -0.059315	            2.321913	           -0.215226	            8.362912	          453.066246	           46.147548	           -0.316103	            0.005473	           -0.734369	           -0.005018	           -0.271868	           -0.027691
            0.006000	          -11.839671	          462.751356	          -42.743050	           -0.261953	            0.005987	           -0.351558	           -0.059655	            2.331599	           -0.215363	            8.592406	          454.356974	           45.917407	           -0.315864	            0.005475	           -0.734693	           -0.005304	           -0.280454	           -0.028343
            0.006500	          -11.656443	          461.670387	          -42.885714	           -0.261798	            0.005989	           -0.351877	           -0.058913	            2.333339	           -0.216750	            8.499453	          454.171765	           46.104502	           -0.315896	            0.005475	           -0.734529	           -0.005426	           -0.289935	           -0.029432
            0.007000	          -11.794036	          460.769456	          -42.980949	           -0.261791	            0.005989	           -0.351952	           -0.058711	            2.293710	           -0.213959	            8.543727	          454.907888	           46.294823	           -0.315677	            0.005476	           -0.734607	           -0.005452	           -0.290270	           -0.029540
            0.007500	          -11.978027	          461.671505	          -43.160053	           -0.262028	            0.005988	           -0.351783	           -0.060474	            2.330862	           -0.217904	            8.543001	          455.092531	           46.154696	           -0.315727	            0.005476	           -0.734647	           -0.005440	           -0.289774	           -0.029388
            0.008000	          -11.840205	          461.310607	          -43.070229	           -0.261959	            0.005989	           -0.352012	           -0.059712	            2.326468	           -0.217210	            8.640709	          453.987797	           46.197642	           -0.315929	            0.005474	           -0.734489	           -0.005608	           -0.294673	           -0.029986
            0.008500	          -12.115377	          461.310750	          -43.115398	           -0.261923	            0.005989	           -0.351973	           -0.058461	            2.225979	           -0.208046	            8.502817	          453.250727	           46.195074	           -0.316103	            0.005473	           -0.734287	           -0.005805	           -0.309449	           -0.031539
            0.009000	          -12.023154	          461.490081	          -42.885577	           -0.261859	            0.005988	           -0.351752	           -0.058770	            2.255781	           -0.209626	            8.548982	          453.435204	           46.148783	           -0.316034	            0.005473	           -0.734285	           -0.005256	           -0.278779	           -0.028373
            0.009500	          -12.023499	          462.752107	          -42.926018	           -0.261978	            0.005987	           -0.351533	           -0.059333	            2.283569	           -0.211829	            8.500159	          453.987289	           46.197702	           -0.316131	            0.005474	           -0.734449	           -0.005964	           -0.318522	           -0.032413
            0.010000	          -12.068965	          461.309776	          -42.886236	           -0.262069	            0.005989	           -0.351873	           -0.060078	            2.296336	           -0.213482	            8.639983	          454.172440	           46.057515	           -0.315892	            0.005475	           -0.734489	           -0.005890	           -0.309613	           -0.031398
            0.010500	          -11.977296	          462.030660	          -42.837512	           -0.262008	            0.005988	           -0.351841	           -0.060622	            2.338534	           -0.216819	            8.642059	          453.619348	           46.243256	           -0.316124	            0.005473	           -0.734284	           -0.005355	           -0.281070	           -0.028653
            0.011000	          -11.932283	          462.212341	          -43.157848	           -0.261830	            0.005989	           -0.351913	           -0.060016	            2.324799	           -0.217072	            8.595229	          453.619012	           46.290204	           -0.315987	            0.005474	           -0.734411	           -0.006425	           -0.339074	           -0.034601
            0.011500	          -11.702580	          462.031303	          -42.975766	           -0.261863	            0.005988	           -0.351647	           -0.058728	            2.318631	           -0.215667	            8.548941	          453.435539	           46.054926	           -0.315816	            0.005474	           -0.734329	           -0.006164	           -0.326936	           -0.033206
            0.012000	          -11.977719	          461.851211	          -43.021709	           -0.261985	            0.005988	           -0.351731	           -0.059592	            2.297829	           -0.214044	            8.550332	          453.066755	           46.194397	           -0.316184	            0.005472	           -0.734121	           -0.005315	           -0.281628	           -0.028715
            0.012500	          -11.840501	          462.933029	          -43.063272	           -0.261830	            0.005987	           -0.351587	           -0.058065	            2.270177	           -0.211178	            8.451233	          454.540273	           46.011980	           -0.315926	            0.005475	           -0.734523	           -0.004130	           -0.222131	           -0.022486
            0.013000	          -12.069078	          461.309973	          -42.932088	           -0.261825	            0.005989	           -0.351919	           -0.060053	            2.295362	           -0.213619	            8.455906	          453.251060	           46.054309	           -0.316234	            0.005472	           -0.734244	           -0.005230	           -0.280359	           -0.028487
            0.013500	          -11.839767	          462.030687	          -42.837853	           -0.262007	            0.005989	           -0.351918	           -0.058584	            2.286159	           -0.211965	            8.824662	          454.910242	           45.919279	           -0.315927	            0.005475	           -0.734731	           -0.005570	           -0.287110	           -0.028981
            0.014000	          -11.977344	          461.670325	          -42.884918	           -0.262157	            0.005989	           -0.352001	           -0.060108	            2.316885	           -0.215217	            8.591824	          454.540446	           46.105777	           -0.315991	            0.005474	           -0.734527	           -0.005736	           -0.303470	           -0.030782
            0.014500	          -11.977572	          461.670718	          -42.976630	           -0.261997	            0.005988	           -0.351764	           -0.059584	            2.296646	           -0.213793	            8.639338	          454.356474	           46.105100	           -0.316071	            0.005474	           -0.734486	           -0.005395	           -0.283724	           -0.028790
            0.015000	          -12.115298	          462.752286	          -42.971650	           -0.261782	            0.005987	           -0.351499	           -0.059853	            2.286135	           -0.212293	            8.357636	          454.539098	           46.246661	           -0.316242	            0.005474	           -0.734609	           -0.005387	           -0.292968	           -0.029808
            0.015500	          -11.977329	          462.210956	          -42.836739	           -0.262048	            0.005987	           -0.351597	           -0.059282	            2.287734	           -0.212022	            8.592632	          454.355133	           46.433617	           -0.316026	            0.005474	           -0.734404	           -0.005598	           -0.295991	           -0.030249
            0.016000	          -12.252453	          462.571434	          -42.834510	           -0.261894	            0.005987	           -0.351564	           -0.059965	            2.263872	           -0.209636	            8.732976	          454.357315	           45.964276	           -0.316153	            0.005473	           -0.734404	           -0.005492	           -0.285737	           -0.028906
            0.016500	          -11.794134	          461.310223	          -42.978631	           -0.262154	            0.005988	           -0.351841	           -0.060039	            2.348331	           -0.218786	            8.827362	          454.173284	           46.010507	           -0.316139	            0.005474	           -0.734448	           -0.006157	           -0.316774	           -0.032091
            0.017000	          -11.931942	          462.211751	          -43.020276	           -0.261954	            0.005988	           -0.351778	           -0.059860	            2.318827	           -0.215824	            8.595085	          453.620183	           45.961707	           -0.316249	            0.005472	           -0.734201	           -0.005270	           -0.278131	           -0.028181
            0.017500	          -11.977309	          460.228593	          -42.982813	           -0.261922	            0.005990	           -0.352109	           -0.059816	            2.298443	           -0.214662	            8.825491	          454.724763	           46.294047	           -0.316085	            0.005474	           -0.734650	           -0.005601	           -0.288583	           -0.029380
            0.018000	          -12.206967	          462.031402	          -43.020367	           -0.262090	            0.005988	           -0.351732	           -0.059026	            2.234116	           -0.208022	            8.686229	          454.356309	           46.198936	           -0.316150	            0.005474	           -0.734487	           -0.005731	           -0.299759	           -0.030479
            0.018500	          -12.023058	          462.210751	          -42.790773	           -0.261895	            0.005988	           -0.351714	           -0.058904	            2.264489	           -0.209643	            8.494116	          455.645119	           46.062831	           -0.315801	            0.005475	           -0.734476	           -0.004559	           -0.244530	           -0.024720
            0.019000	          -12.206397	          462.030419	          -42.791091	           -0.261929	            0.005988	           -0.351793	           -0.059127	            2.238048	           -0.207277	            8.591200	          454.724252	           46.200290	           -0.316245	            0.005473	           -0.734485	           -0.005925	           -0.313620	           -0.031864
            0.019500	          -11.932023	          462.031652	          -43.066909	           -0.261846	            0.005987	           -0.351575	           -0.059377	            2.299185	           -0.214312	            8.731791	          454.724424	           46.294087	           -0.315953	            0.005474	           -0.734362	           -0.006215	           -0.323647	           -0.032949
